# xmcd CD database file
#
# Track frame offsets:
#	150
#	10774
#	29777
#	40960
#	57358
#	75993
#	98888
#	121815
#	132125
#	146200
#	163116
#	184619
#	203834
#
# Disc length: 3008 seconds
#
# Revision: 4
# Processed by: cddbd v1.5.2PL0 Copyright (c) Steve Scherf et al.
# Submitted via: CDex 1.70beta2
#
DISCID=ae0bbe0d
DTITLE=HWP Jazz Quartet - Mindgames
DYEAR=2006
DGENRE=Jazz
TTITLE0=HWP Jazz Quartet - Download
TTITLE1=HWP Jazz Quartet - Sorry Miss
TTITLE2=HWP Jazz Quartet - A Sentimental Evening
TTITLE3=HWP Jazz Quartet - Chess
TTITLE4=HWP Jazz Quartet - Saturday Morning
TTITLE5=HWP Jazz Quartet - Tic Tac Toe
TTITLE6=HWP Jazz Quartet - Tribute To Herbie
TTITLE7=HWP Jazz Quartet - Come On
TTITLE8=HWP Jazz Quartet - Everybody´s Darling
TTITLE9=HWP Jazz Quartet - Emotions
TTITLE10=HWP Jazz Quartet - Pit Lane
TTITLE11=HWP Jazz Quartet - Shaggy
TTITLE12=HWP Jazz Quartet - Mindgames
EXTD=YEAR: 2006
EXTT0=
EXTT1=
EXTT2=
EXTT3=
EXTT4=
EXTT5=
EXTT6=
EXTT7=
EXTT8=
EXTT9=
EXTT10=
EXTT11=
EXTT12=
PLAYORDER=
